<svg id="Слой_1" data-name="Слой 1" xmlns="http://www.w3.org/2000/svg" viewBox="0 0 483.68 39.08"><defs><style>.cls-1{fill:#1d1d1b;}.cls-2{fill:#fff;}</style></defs><title>pa</title><path class="cls-1" d="M208,9.45a5.83,5.83,0,0,1,6.21,6.07c0,3.56-2.54,6-6.24,6h-5v7.3h-1.84V9.45Zm-5,10.44h4.61c3,0,4.78-1.64,4.78-4.37s-1.76-4.43-4.78-4.43H203Z" transform="translate(-1.34)"/><path class="cls-1" d="M218.12,8.61h1.76V28.83h-1.76Z" transform="translate(-1.34)"/><path class="cls-1" d="M223.71,24.83c0-2.53,1.86-4,5.2-4.22l4.53-.29V19c0-2.12-1.3-3.26-3.64-3.26-2,0-3.38.8-3.73,2.24h-1.79c.34-2.34,2.58-3.81,5.57-3.81,3.39,0,5.36,1.77,5.36,4.82v9.88h-1.69V26.35h-.16a5.2,5.2,0,0,1-4.78,2.72C225.75,29.07,223.71,27.42,223.71,24.83Zm9.73-1.38v-1.7l-4.28.31c-2.46.18-3.64,1.09-3.64,2.74s1.41,2.71,3.35,2.71C231.47,27.51,233.44,25.74,233.44,23.45Z" transform="translate(-1.34)"/><path class="cls-1" d="M242.33,10.61v3.76h3.34v1.49h-3.34v9c0,1.77.67,2.52,2.29,2.52.29,0,.76,0,1,0v1.51a10.33,10.33,0,0,1-1.23.09c-2.77,0-3.87-1.05-3.87-3.68V15.86h-2.36V14.37h2.36V10.61Z" transform="translate(-1.34)"/><path class="cls-1" d="M248.38,21.59c0-4.62,2.53-7.46,6.57-7.46s6.58,2.84,6.58,7.46S259,29.07,255,29.07,248.38,26.21,248.38,21.59Zm11.32,0c0-3.66-1.77-5.88-4.75-5.88s-4.76,2.22-4.76,5.88S252,27.47,255,27.47,259.7,25.26,259.7,21.59Z" transform="translate(-1.34)"/><path class="cls-1" d="M265.33,14.37H267V17h.18a4.71,4.71,0,0,1,4.67-2.84c3.22,0,5.06,1.93,5.06,5.3v9.4h-1.76v-9c0-2.75-1.26-4.16-3.77-4.16a4.18,4.18,0,0,0-4.3,4.53v8.59h-1.75Z" transform="translate(-1.34)"/><path class="cls-1" d="M280.6,21.59c0-4.62,2.53-7.46,6.57-7.46s6.58,2.84,6.58,7.46-2.54,7.48-6.58,7.48S280.6,26.21,280.6,21.59Zm11.32,0c0-3.66-1.77-5.88-4.75-5.88s-4.75,2.22-4.75,5.88,1.77,5.88,4.75,5.88S291.92,25.26,291.92,21.59Z" transform="translate(-1.34)"/><path class="cls-1" d="M303,28.83h-1.88l-5.4-14.46h1.88l4.38,12.54h.16l4.36-12.54h1.9Z" transform="translate(-1.34)"/><path class="cls-1" d="M318.12,24.83c0-2.53,1.86-4,5.2-4.22l4.53-.29V19c0-2.12-1.3-3.26-3.64-3.26-2,0-3.38.8-3.73,2.24h-1.79c.34-2.34,2.58-3.81,5.58-3.81,3.38,0,5.35,1.77,5.35,4.82v9.88h-1.69V26.35h-.16A5.2,5.2,0,0,1,323,29.07C320.16,29.07,318.12,27.42,318.12,24.83Zm9.73-1.38v-1.7l-4.28.31c-2.46.18-3.64,1.09-3.64,2.74s1.41,2.71,3.35,2.71C325.88,27.51,327.85,25.74,327.85,23.45Z" transform="translate(-1.34)"/><path class="cls-1" d="M334,30.52h1.86c.33,1.33,1.83,2.19,4,2.19,2.8,0,4.53-1.46,4.53-3.8V25.66h-.18a5.08,5.08,0,0,1-4.84,3c-3.72,0-6.1-2.93-6.1-7.26s2.39-7.29,6.1-7.29a5.24,5.24,0,0,1,4.92,3.1h.16V14.37h1.7V29c0,3.15-2.49,5.21-6.29,5.21C336.62,34.25,334.41,32.78,334,30.52Zm10.44-9.07c0-3.44-1.83-5.74-4.7-5.74s-4.63,2.27-4.63,5.71,1.75,5.69,4.63,5.69S344.48,24.87,344.48,21.45Z" transform="translate(-1.34)"/><path class="cls-1" d="M362.46,25.26c-.68,2.33-2.94,3.81-6,3.81-4,0-6.48-2.9-6.48-7.46s2.53-7.48,6.46-7.48,6.22,2.74,6.22,7.15v.78H351.83v.08c.09,3.27,1.9,5.36,4.7,5.36,2.05,0,3.53-.82,4.15-2.24Zm-10.62-4.65h9c0-3-1.77-4.93-4.39-4.93S352,17.63,351.84,20.61Z" transform="translate(-1.34)"/><path class="cls-1" d="M366.5,14.37h1.68V17h.17A4.73,4.73,0,0,1,373,14.13c3.22,0,5.06,1.93,5.06,5.3v9.4h-1.76v-9c0-2.75-1.26-4.16-3.77-4.16a4.18,4.18,0,0,0-4.3,4.53v8.59H366.5Z" transform="translate(-1.34)"/><path class="cls-1" d="M392.44,18.62a4,4,0,0,0-4.15-2.91c-2.87,0-4.7,2.27-4.7,5.84s1.84,5.92,4.7,5.92c2.14,0,3.69-1,4.14-2.8h1.78c-.44,2.59-2.6,4.4-5.9,4.4-4,0-6.53-2.93-6.53-7.52s2.52-7.42,6.51-7.42c3.32,0,5.51,2,5.94,4.49Z" transform="translate(-1.34)"/><path class="cls-1" d="M398.08,33.89V32.36a5.16,5.16,0,0,0,.79,0c1.33,0,2.06-.67,2.77-2.59l.29-.9-5.42-14.55h1.9l4.38,12.54H403l4.37-12.54h1.88l-5.63,15.16C402.28,33,401.26,34,398.9,34A7.72,7.72,0,0,1,398.08,33.89Z" transform="translate(-1.34)"/><path class="cls-1" d="M410.22,33.52l1.3-7.15h2l-2,7.15Z" transform="translate(-1.34)"/><path class="cls-1" d="M431.91,9.05c3.35,0,5.91,2.3,5.91,5.39,0,2.16-.95,3.76-4.36,7.3l-5,5.26v.16h9.89v1.67H425.83V27.54l6.67-7.16c2.68-2.87,3.44-4,3.44-5.77a3.89,3.89,0,0,0-4.13-3.95,4,4,0,0,0-4.3,4.15h-1.79C425.75,11.46,428.34,9.05,431.91,9.05Z" transform="translate(-1.34)"/><path class="cls-1" d="M441.78,19.13c0-6.31,2.56-10.08,6.85-10.08s6.81,3.79,6.81,10.11-2.53,10.07-6.81,10.07S441.78,25.49,441.78,19.13Zm11.82,0c0-5.34-1.84-8.45-5-8.45s-5,3.14-5,8.45,1.84,8.49,5,8.49S453.6,24.51,453.6,19.13Z" transform="translate(-1.34)"/><path class="cls-1" d="M464,11.51h-.17c-.49.27-4.39,3.05-5.05,3.48V13c.42-.27,4.43-3.12,5.22-3.59h1.83V28.83H464Z" transform="translate(-1.34)"/><path class="cls-1" d="M471.52,24.35h1.88a4.23,4.23,0,0,0,4.33,3.23c3.35,0,5.48-3,5.51-9h-.16a5.78,5.78,0,0,1-5.52,3.56,6.2,6.2,0,0,1-6.39-6.42,6.45,6.45,0,0,1,6.67-6.67c4,0,7.19,3,7.19,9.68s-2.69,10.49-7.32,10.49A5.9,5.9,0,0,1,471.52,24.35Zm11.24-8.55a4.92,4.92,0,0,0-4.89-5.12,4.82,4.82,0,0,0-4.85,5,4.67,4.67,0,0,0,4.83,4.87A4.76,4.76,0,0,0,482.76,15.8Z" transform="translate(-1.34)"/><path class="cls-1" d="M12,18.62a4,4,0,0,0-4.15-2.91c-2.87,0-4.7,2.27-4.7,5.84S5,27.47,7.85,27.47c2.14,0,3.7-1,4.14-2.8h1.78c-.44,2.59-2.6,4.4-5.9,4.4-4,0-6.53-2.93-6.53-7.52s2.53-7.42,6.51-7.42c3.32,0,5.51,2,5.94,4.49Z" transform="translate(-1.34)"/><path class="cls-1" d="M15.81,32.66V27.34H17c1.09-.71,1.59-2.65,1.76-4.79.08-.84.53-7.39.58-8.18h9.6v13h2.34v5.32H29.59V28.83H17.48v3.83Zm11.35-16.8H20.89c0,.75-.42,5.95-.5,6.75a8.74,8.74,0,0,1-1.3,4.57v.16h8.07Z" transform="translate(-1.34)"/><path class="cls-1" d="M46.23,25.26c-.69,2.33-2.95,3.81-6,3.81-4,0-6.47-2.9-6.47-7.46s2.52-7.48,6.46-7.48,6.21,2.74,6.21,7.15v.78H35.59v.08c.09,3.27,1.91,5.36,4.7,5.36,2.05,0,3.53-.82,4.15-2.24ZM35.6,20.61h9c0-3-1.77-4.93-4.39-4.93S35.77,17.63,35.6,20.61Z" transform="translate(-1.34)"/><path class="cls-1" d="M49.16,29a2.34,2.34,0,0,1-.8-.13V27.19a2.28,2.28,0,0,0,.72.11c1.52,0,2-1.93,2.26-4.75.08-.84.52-7.39.56-8.18h9.25V28.83H59.4v-13H53.5c0,.75-.4,5.95-.48,6.75C52.72,26.35,51.93,29,49.16,29Z" transform="translate(-1.34)"/><path class="cls-1" d="M65.1,24.83c0-2.53,1.87-4,5.21-4.22l4.53-.29V19c0-2.12-1.31-3.26-3.64-3.26-2,0-3.39.8-3.74,2.24H65.68c.33-2.34,2.58-3.81,5.57-3.81,3.38,0,5.36,1.77,5.36,4.82v9.88H74.92V26.35h-.17A5.18,5.18,0,0,1,70,29.07C67.14,29.07,65.1,27.42,65.1,24.83Zm9.74-1.38v-1.7l-4.29.31c-2.46.18-3.64,1.09-3.64,2.74s1.41,2.71,3.36,2.71C72.86,27.51,74.84,25.74,74.84,23.45Z" transform="translate(-1.34)"/><path class="cls-1" d="M91.09,22.06h-8v6.77H81.31V14.37h1.75v6.2h8v-6.2h1.76V28.83H91.09Z" transform="translate(-1.34)"/><path class="cls-1" d="M96.92,21.59c0-4.62,2.52-7.46,6.56-7.46s6.58,2.84,6.58,7.46-2.53,7.48-6.58,7.48S96.92,26.21,96.92,21.59Zm11.32,0c0-3.66-1.77-5.88-4.76-5.88s-4.75,2.22-4.75,5.88,1.77,5.88,4.75,5.88S108.24,25.26,108.24,21.59Z" transform="translate(-1.34)"/><path class="cls-1" d="M121.56,28.83V14.37h5.8c2.73,0,4.35,1.43,4.35,3.68a3.25,3.25,0,0,1-2.54,3.21v.16a3.35,3.35,0,0,1,3.23,3.3c0,2.57-1.82,4.11-5,4.11Zm1.75-8.15h3.58c2,0,3.07-.9,3.07-2.46s-1-2.36-2.81-2.36h-3.84Zm0,6.66h4.06c2.15,0,3.28-.93,3.28-2.65s-1.32-2.51-3.63-2.51h-3.71Z" transform="translate(-1.34)"/><path d="M146.23,0h.14q0,19.53,0,39.08h-.13V0m43.12,0h.13V9.29h-.13V0M179.18,25.7c3.43-.07,6.87,0,10.3,0V39.08h-.14q0-6.66,0-13.32c-2.59,0-5.17,0-7.76,0-.8,0-1.6.06-2.4,0Z" transform="translate(-1.34)"/><path d="M146.37,0h43V9.29h-5c0-1.36-.06-2.73,0-4.1H150.41q0,14.36,0,28.71h33.85V29.83H175V9.25h4.14c0,5.48,0,11,0,16.45.8.1,1.6,0,2.4,0,2.59,0,5.17,0,7.76,0q0,6.66,0,13.32h-43q0-19.54,0-39.08m9.18,9.21c3.16,0,6.32-.12,9.48,0A7.68,7.68,0,0,1,170,11.18a4.32,4.32,0,0,1,1.32,2.24,12.25,12.25,0,0,1,0,5.08,3.91,3.91,0,0,1-1.42,2.29,8.82,8.82,0,0,1-4,1.63c-2.05.29-4.12.19-6.18.32,0,2.36-.08,4.73-.07,7.09h-4.14V11.34c0-.71.05-1.42,0-2.13m4.18,4.06v5.3h3.35a15.09,15.09,0,0,0,2.33,0,2,2,0,0,0,1.15-1.05,3.35,3.35,0,0,0-1-4.2,17.32,17.32,0,0,0-2.79,0Z" transform="translate(-1.34)"/><path class="cls-2" d="M184.26,15.81c1.74,0,3.48,0,5.22,0v4.09c-1.73.05-3.46,0-5.18,0,0-1.38-.07-2.76,0-4.14Z" transform="translate(-1.34)"/></svg>